<?xml version="1.0" encoding="UTF-8" standalone="no" ?>
<!DOCTYPE svg PUBLIC "-//W3C//DTD SVG 1.1//EN" "http://www.w3.org/Graphics/SVG/1.1/DTD/svg11.dtd">
<svg xmlns="http://www.w3.org/2000/svg" xmlns:xlink="http://www.w3.org/1999/xlink" version="1.1" width="1080" height="1080" viewBox="0 0 1080 1080" xml:space="preserve">
<desc>Created with Fabric.js 5.2.4</desc>
<defs>
</defs>
<rect x="0" y="0" width="100%" height="100%" fill="transparent"></rect>
<g transform="matrix(1 0 0 1 540 540)" id="d093f27a-d0d3-4253-b7c7-6ebf4ba793c2"  >
<rect style="stroke: none; stroke-width: 1; stroke-dasharray: none; stroke-linecap: butt; stroke-dashoffset: 0; stroke-linejoin: miter; stroke-miterlimit: 4; fill: rgb(255,255,255); fill-rule: nonzero; opacity: 1; visibility: hidden;" vector-effect="non-scaling-stroke"  x="-540" y="-540" rx="0" ry="0" width="1080" height="1080" />
</g>
<g transform="matrix(1 0 0 1 540 540)" id="b38d7989-4e5b-4195-adc1-7386ef6801e4"  >
</g>
<g transform="matrix(1.7 0 0 1.7 283.81 623.85)"  >
<path style="stroke: none; stroke-width: 1; stroke-dasharray: none; stroke-linecap: butt; stroke-dashoffset: 0; stroke-linejoin: miter; stroke-miterlimit: 10; fill: rgb(175,144,21); fill-rule: nonzero; opacity: 1;" vector-effect="non-scaling-stroke"  transform=" translate(-124.73, -274.75)" d="M 136.24813 267.70735 L 136.24813 265.75289000000004 L 130.48761000000002 265.75289000000004 L 124.80424000000002 278.58547000000004 L 119.14659000000002 265.75289000000004 L 113.20606000000002 265.75289000000004 L 113.20606000000002 267.70735 L 115.28910000000002 267.70735 L 115.28910000000002 281.80004 L 113.20606000000002 281.80004 L 113.20606000000002 283.7545 L 119.68664000000003 283.7545 L 119.68664000000003 281.80004 L 117.65503000000002 281.80004 L 117.65503000000002 268.76173 L 123.41555000000002 281.92862 L 125.65289000000003 281.92862 L 131.46484000000004 268.76173 L 131.46484000000004 281.80004 L 129.43323000000004 281.80004 L 129.43323000000004 283.7545 L 136.24813000000003 283.7545 L 136.24813000000003 281.80004 L 134.16509000000002 281.80004 L 134.16509000000002 267.70735 z" stroke-linecap="round" />
</g>
<g transform="matrix(1.7 0 0 1.7 374.98 623.85)"  >
<path style="stroke: none; stroke-width: 1; stroke-dasharray: none; stroke-linecap: butt; stroke-dashoffset: 0; stroke-linejoin: miter; stroke-miterlimit: 10; fill: rgb(175,144,21); fill-rule: nonzero; opacity: 1;" vector-effect="non-scaling-stroke"  transform=" translate(-178.2, -274.75)" d="M 178.19067 284.16596 C 183.71974 284.16596 187.21719000000002 279.97416 187.21719000000002 274.59938999999997 C 187.21719000000002 269.40464 183.61687 265.34141999999997 178.19067 265.34141999999997 C 172.79019000000002 265.34141999999997 169.18987 269.40464 169.18987 274.59938999999997 C 169.18987 279.97416 172.68733 284.16596 178.19067 284.16596 z M 178.19067 281.85147 C 174.5132 281.85147 172.19871 278.7912 172.19871 274.59939 C 172.19871 270.51045000000005 174.5132 267.65591 178.19067 267.65591 C 181.86814 267.65591 184.20835000000002 270.51045 184.20835000000002 274.59939 C 184.20835000000002 278.79119000000003 181.86814 281.85147 178.19067 281.85147 z" stroke-linecap="round" />
</g>
<g transform="matrix(1.7 0 0 1.7 459.41 623.85)"  >
<path style="stroke: none; stroke-width: 1; stroke-dasharray: none; stroke-linecap: butt; stroke-dashoffset: 0; stroke-linejoin: miter; stroke-miterlimit: 10; fill: rgb(175,144,21); fill-rule: nonzero; opacity: 1;" vector-effect="non-scaling-stroke"  transform=" translate(-227.73, -274.75)" d="M 237.14112 265.75289 L 230.55767 265.75289 L 230.55767 267.70734999999996 L 232.69215 267.70734999999996 L 232.69215 279.79414999999995 L 223.35703 265.7528899999999 L 218.31658000000002 265.7528899999999 L 218.31658000000002 267.7073499999999 L 220.39962000000003 267.7073499999999 L 220.39962000000003 281.8000399999999 L 218.31658000000002 281.8000399999999 L 218.31658000000002 283.7544999999999 L 224.84859 283.7544999999999 L 224.84859 281.8000399999999 L 222.76555 281.8000399999999 L 222.76555 269.6618099999999 L 232.10066999999998 283.7544999999999 L 235.05808 283.7544999999999 L 235.05808 267.7073499999999 L 237.14112 267.7073499999999 z" stroke-linecap="round" />
</g>
<g transform="matrix(1.7 0 0 1.7 536.33 623.85)"  >
<path style="stroke: none; stroke-width: 1; stroke-dasharray: none; stroke-linecap: butt; stroke-dashoffset: 0; stroke-linejoin: miter; stroke-miterlimit: 10; fill: rgb(175,144,21); fill-rule: nonzero; opacity: 1;" vector-effect="non-scaling-stroke"  transform=" translate(-272.85, -274.75)" d="M 280.20027 265.75289 L 265.49038 265.75289 L 265.49038 270.94764 L 267.80487 270.94764 L 267.80487 267.70734999999996 L 271.45663 267.70734999999996 L 271.45663 281.80003999999997 L 269.14214000000004 281.80003999999997 L 269.14214000000004 283.75449999999995 L 276.54852000000005 283.75449999999995 L 276.54852000000005 281.80003999999997 L 274.2340300000001 281.80003999999997 L 274.2340300000001 267.70734999999996 L 277.8857900000001 267.70734999999996 L 277.8857900000001 270.94764 L 280.2002800000001 270.94764 z" stroke-linecap="round" />
</g>
<g transform="matrix(1.7 0 0 1.7 604.74 623.85)"  >
<path style="stroke: none; stroke-width: 1; stroke-dasharray: none; stroke-linecap: butt; stroke-dashoffset: 0; stroke-linejoin: miter; stroke-miterlimit: 10; fill: rgb(175,144,21); fill-rule: nonzero; opacity: 1;" vector-effect="non-scaling-stroke"  transform=" translate(-312.97, -274.75)" d="M 320.39396 281.80004 L 314.50486 265.75289000000004 L 311.49602 265.75289000000004 L 305.55548999999996 281.80004 L 303.80675999999994 281.80004 L 303.80675999999994 283.7545 L 310.21018999999995 283.7545 L 310.21018999999995 281.80004 L 308.04999999999995 281.80004 L 309.41297999999995 277.91684000000004 L 316.0221399999999 277.91684000000004 L 317.3851199999999 281.80004 L 315.2249299999999 281.80004 L 315.2249299999999 283.7545 L 322.1426899999999 283.7545 L 322.1426899999999 281.80004 z M 310.10733 275.85951 L 312.73042 268.27312 L 315.32779999999997 275.85951 z" stroke-linecap="round" />
</g>
<g transform="matrix(1.7 0 0 1.7 676.48 623.85)"  >
<path style="stroke: none; stroke-width: 1; stroke-dasharray: none; stroke-linecap: butt; stroke-dashoffset: 0; stroke-linejoin: miter; stroke-miterlimit: 10; fill: rgb(175,144,21); fill-rule: nonzero; opacity: 1;" vector-effect="non-scaling-stroke"  transform=" translate(-355.06, -274.75)" d="M 359.44027 278.35402 L 359.44027 281.69718 L 351.82816 281.69718 L 361.62618000000003 267.50162 L 361.62618000000003 265.75289 L 348.87075000000004 265.75289 L 348.87075000000004 270.76761999999997 L 351.18524 270.76761999999997 L 351.18524 267.81021 L 358.15443000000005 267.81021 L 348.35641000000004 282.00577 L 348.35641000000004 283.7545 L 361.75475000000006 283.7545 L 361.75475000000006 278.35402 z" stroke-linecap="round" />
</g>
<g transform="matrix(1.7 0 0 1.7 742.19 623.85)"  >
<path style="stroke: none; stroke-width: 1; stroke-dasharray: none; stroke-linecap: butt; stroke-dashoffset: 0; stroke-linejoin: miter; stroke-miterlimit: 10; fill: rgb(175,144,21); fill-rule: nonzero; opacity: 1;" vector-effect="non-scaling-stroke"  transform=" translate(-393.59, -274.75)" d="M 397.42669 279.02265 L 397.42669 281.80004 L 392.30909 281.80004 L 392.30909 275.39661 L 397.65814 275.39661 L 397.65814 273.33928000000003 L 392.30909 273.33928000000003 L 392.30909 267.70735 L 397.37526 267.70735 L 397.37526 270.15043000000003 L 399.68975 270.15043000000003 L 399.68975 265.75289000000004 L 387.44866 265.75289000000004 L 387.44866 267.70735 L 389.5317 267.70735 L 389.5317 281.80004 L 387.44866 281.80004 L 387.44866 283.7545 L 399.74119 283.7545 L 399.74119 279.02265 z" stroke-linecap="round" />
</g>
<g transform="matrix(1.7 0 0 1.7 812.53 623.85)"  >
<path style="stroke: none; stroke-width: 1; stroke-dasharray: none; stroke-linecap: butt; stroke-dashoffset: 0; stroke-linejoin: miter; stroke-miterlimit: 10; fill: rgb(175,144,21); fill-rule: nonzero; opacity: 1;" vector-effect="non-scaling-stroke"  transform=" translate(-434.86, -274.75)" d="M 440.5143 281.80004 L 436.60537999999997 275.60234 C 438.79128999999995 274.83084 440.38572 272.97925000000004 440.38572 270.71619000000004 C 440.38572 267.73307000000005 438.01979 265.75289000000004 434.83094 265.75289000000004 L 427.09025 265.75289000000004 L 427.09025 267.70735 L 429.17329 267.70735 L 429.17329 281.80004 L 427.09025 281.80004 L 427.09025 283.7545 L 433.87943 283.7545 L 433.87943 281.80004 L 431.95069 281.80004 L 431.95069 276.14239000000003 L 433.93087 276.14239000000003 L 438.43127000000004 283.7545 L 442.62307000000004 283.7545 L 442.62307000000004 281.80004 z M 433.98229 274.26508 L 431.95068 274.26508 L 431.95068 267.6302 L 434.23945999999995 267.6302 C 436.03961999999996 267.6302 437.45402999999993 268.83888 437.45402999999993 270.76762 C 437.45402999999993 272.9021 435.98817999999994 274.26508 433.9822899999999 274.26508 z" stroke-linecap="round" />
</g>
<g transform="matrix(1.7 0 0 1.7 870.15 623.85)"  >
<path style="stroke: none; stroke-width: 1; stroke-dasharray: none; stroke-linecap: butt; stroke-dashoffset: 0; stroke-linejoin: miter; stroke-miterlimit: 10; fill: rgb(175,144,21); fill-rule: nonzero; opacity: 1;" vector-effect="non-scaling-stroke"  transform=" translate(-468.65, -274.75)" d="M 472.12158 267.70735 L 472.12158 265.75289000000004 L 465.1781 265.75289000000004 L 465.1781 267.70735 L 467.26113999999995 267.70735 L 467.26113999999995 281.80004 L 465.1781 281.80004 L 465.1781 283.7545 L 472.12158 283.7545 L 472.12158 281.80004 L 470.03854 281.80004 L 470.03854 267.70735 z" stroke-linecap="round" />
</g>
<g transform="matrix(1.7 0 0 1.7 238.22 528.57)"  >
<path style="stroke: none; stroke-width: 1; stroke-dasharray: none; stroke-linecap: butt; stroke-dashoffset: 0; stroke-linejoin: miter; stroke-miterlimit: 10; fill: rgb(175,144,21); fill-rule: nonzero; opacity: 1;" vector-effect="non-scaling-stroke"  transform=" translate(-97.99, -218.87)" d="M 95.14505 187.27811 L 65 187.27811 L 65 198.55993999999998 L 70.41528 198.55993999999998 L 70.41528 239.17452999999998 L 65 239.17452999999998 L 65 250.45635999999996 L 97.31116 250.45635999999996 C 117.61846 250.45635999999996 130.97614 238.27197999999996 130.97614 218.59646999999995 C 130.97614 198.92095999999995 115.81335999999999 187.27810999999997 95.14504999999998 187.27810999999997 z M 94.78403 238.633 L 90.99333 238.633 L 90.99333 199.10146 L 93.79122 199.10146 C 101.64336999999999 199.10146 108.32222 205.87056 108.32222 218.59646 C 108.32222 231.23211 102.54592 238.63299 94.78402 238.63299 z" stroke-linecap="round" />
</g>
<g transform="matrix(1.7 0 0 1.7 358.16 528.42)"  >
<path style="stroke: none; stroke-width: 1; stroke-dasharray: none; stroke-linecap: butt; stroke-dashoffset: 0; stroke-linejoin: miter; stroke-miterlimit: 10; fill: rgb(175,144,21); fill-rule: nonzero; opacity: 1;" vector-effect="non-scaling-stroke"  transform=" translate(-168.34, -218.78)" d="M 198.66713 239.17453 L 179.08186999999998 187.0976 L 157.33049999999997 187.0976 L 137.74523999999997 239.17453 L 131.96893999999998 239.17453 L 131.96893999999998 250.45636000000002 L 159.76736999999997 250.45636000000002 L 159.76736999999997 239.17453 L 154.44234999999998 239.17453 L 155.97668 233.57874 L 176.01321 233.57874 L 177.54754 239.17453 L 172.13226 239.17453 L 172.13226 250.45636000000002 L 204.71419 250.45636000000002 L 204.71419 239.17453 z M 159.58687 220.76258 L 165.99495000000002 201.17732 L 172.40303000000003 220.76258 z" stroke-linecap="round" />
</g>
<g transform="matrix(1.7 0 0 1.7 475.61 524.44)"  >
<path style="stroke: none; stroke-width: 1; stroke-dasharray: none; stroke-linecap: butt; stroke-dashoffset: 0; stroke-linejoin: miter; stroke-miterlimit: 10; fill: rgb(175,144,21); fill-rule: nonzero; opacity: 1;" vector-effect="non-scaling-stroke"  transform=" translate(-234.81, -218.87)" d="M 270.9611 187.27811 L 241.44782999999998 187.27811 L 241.44782999999998 198.55993999999998 L 247.40463999999997 198.55993999999998 L 237.02535999999998 233.93975999999998 L 226.73632999999998 198.55993999999998 L 232.69313999999997 198.55993999999998 L 232.69313999999997 187.27810999999997 L 198.66713999999996 187.27810999999997 L 198.66713999999996 198.55993999999998 L 204.80445999999995 198.55993999999998 L 223.48716999999994 250.45636 L 246.50209999999993 250.45636 L 264.8237899999999 198.55993999999998 L 270.9611099999999 198.55993999999998 z" stroke-linecap="round" />
</g>
<g transform="matrix(1.7 0 0 1.7 603.17 540)"  >
<path style="stroke: none; stroke-width: 0; stroke-dasharray: none; stroke-linecap: butt; stroke-dashoffset: 0; stroke-linejoin: miter; stroke-miterlimit: 10; fill: rgb(175,144,21); fill-rule: nonzero; opacity: 1;" vector-effect="non-scaling-stroke"  transform=" translate(-306.3, -218.78)" d="M 306.25079 251.71993 C 325.60251999999997 251.71993 337.84362 237.04862 337.84362 218.23694 C 337.84362 200.05531000000002 325.24249 185.83404000000002 306.25079 185.83404000000002 C 287.3491 185.83404000000002 274.74797 200.05531000000002 274.74797 218.23694 C 274.74797 237.04862 286.98906 251.71993 306.25079 251.71993 z M 306.25079 243.6192 C 293.37964 243.6192 285.27891 232.90824 285.27891 218.23693 C 285.27891 203.92565 293.37963 193.93476 306.25079 193.93476 C 319.12194 193.93476 327.31266999999997 203.92565000000002 327.31266999999997 218.23693 C 327.31266999999997 232.90824 319.12194 243.6192 306.25079 243.6192 z" stroke-linecap="round" />
</g>
<g transform="matrix(1.7 0 0 1.7 721.31 505.72)"  >
<path style="stroke: none; stroke-width: 1; stroke-dasharray: none; stroke-linecap: butt; stroke-dashoffset: 0; stroke-linejoin: miter; stroke-miterlimit: 10; fill: rgb(175,144,21); fill-rule: nonzero; opacity: 1;" vector-effect="non-scaling-stroke"  transform=" translate(-382.56, -218.78)" d="M 382.51597 251.71993 C 401.86769999999996 251.71993 414.1088 237.04862 414.1088 218.23694 C 414.1088 200.05531000000002 401.50766999999996 185.83404000000002 382.51597 185.83404000000002 C 363.61428 185.83404000000002 351.01315 200.05531000000002 351.01315 218.23694 C 351.01315 237.04862 363.25424 251.71993 382.51597 251.71993 z M 382.51597 243.6192 C 369.64482 243.6192 361.54409 232.90824 361.54409 218.23693 C 361.54409 203.92565 369.64481 193.93476 382.51597 193.93476 C 395.38712 193.93476 403.57784999999996 203.92565000000002 403.57784999999996 218.23693 C 403.57784999999996 232.90824 395.38712 243.6192 382.51597 243.6192 z" stroke-linecap="round" />
</g>
<g transform="matrix(1.7 0 0 1.7 849.24 528.57)"  >
<path style="stroke: none; stroke-width: 1; stroke-dasharray: none; stroke-linecap: butt; stroke-dashoffset: 0; stroke-linejoin: miter; stroke-miterlimit: 10; fill: rgb(175,144,21); fill-rule: nonzero; opacity: 1;" vector-effect="non-scaling-stroke"  transform=" translate(-456.39, -218.87)" d="M 453.04985 187.27811 L 427.77855 187.27811 L 427.77855 194.13746 L 435.08918 194.13746 L 435.08918 243.59701 L 427.77855 243.59701 L 427.77855 250.45636000000002 L 453.68163 250.45636000000002 C 473.44739999999996 250.45636000000002 484.99998999999997 238.27198 484.99998999999997 218.68672 C 484.99998999999997 199.19172 472.63509999999997 187.2781 453.04983999999996 187.2781 z M 452.14731 243.59701 L 444.83668 243.59701 L 444.83668 194.13746 L 451.69603 194.13746 C 465.32448 194.13746 474.4402 202.89216 474.4402 218.41596 C 474.4402 234.75205 466.04652 243.59701 452.14730000000003 243.59701 z" stroke-linecap="round" />
</g>
</svg>