<?xml version="1.0" encoding="UTF-8" standalone="no" ?>
<!DOCTYPE svg PUBLIC "-//W3C//DTD SVG 1.1//EN" "http://www.w3.org/Graphics/SVG/1.1/DTD/svg11.dtd">
<svg xmlns="http://www.w3.org/2000/svg" xmlns:xlink="http://www.w3.org/1999/xlink" version="1.1" width="1080" height="1080" viewBox="0 0 1080 1080" xml:space="preserve">
<desc>Created with Fabric.js 5.2.4</desc>
<defs>
</defs>
<rect x="0" y="0" width="100%" height="100%" fill="transparent"></rect>
<g transform="matrix(1 0 0 1 540 540)" id="2548c281-1673-47a8-8872-2bd215651eec"  >
<rect style="stroke: none; stroke-width: 1; stroke-dasharray: none; stroke-linecap: butt; stroke-dashoffset: 0; stroke-linejoin: miter; stroke-miterlimit: 4; fill: rgb(255,255,255); fill-rule: nonzero; opacity: 1; visibility: hidden;" vector-effect="non-scaling-stroke"  x="-540" y="-540" rx="0" ry="0" width="1080" height="1080" />
</g>
<g transform="matrix(1 0 0 1 540 540)" id="b1430a40-a7b9-496e-a973-9e13e78cf7a9"  >
</g>
<g transform="matrix(1 0 0 1 463.14 571.43)"  >
<path style="stroke: none; stroke-width: 1; stroke-dasharray: none; stroke-linecap: butt; stroke-dashoffset: 0; stroke-linejoin: miter; stroke-miterlimit: 10; fill: rgb(115,107,77); fill-rule: nonzero; opacity: 1;" vector-effect="non-scaling-stroke"  transform=" translate(-193.28, -283.75)" d="M 200.4359 283.71659 L 200.4359 283.71659 C 199.23464 290.6839 194.97016 296.26976 190.76575 296.26976 C 189.68462 296.26976 188.9038 296.14963 188.2431 295.90938 L 192.50758 271.58385 C 193.2884 271.3436 194.06922 271.22346999999996 195.15035 271.22346999999996 C 199.35476 271.22346999999996 201.69722000000002 276.80933 200.4359 283.71657999999996 z M 182.35693 271.70398 L 182.35693 271.70398 L 178.09245 295.78926 C 177.79213000000001 297.3509 176.83113 299.33298 175.68993 300.71443 C 180.43491 300.71443 185.17989 300.89462 189.92487 300.89462 C 201.81735 300.89462 209.08498 292.30561 210.58655 283.71659 C 212.08812999999998 275.18764 207.88370999999998 266.59862 195.99123 266.59862 C 191.24625 266.59862 186.38114000000002 266.77880999999996 181.63616 266.77880999999996 C 182.29684999999998 268.16025999999994 182.59716999999998 270.14234 182.35692 271.70397999999994 z" stroke-linecap="round" />
</g>
<g transform="matrix(1 0 0 1 492.48 571.43)"  >
<path style="stroke: none; stroke-width: 1; stroke-dasharray: none; stroke-linecap: butt; stroke-dashoffset: 0; stroke-linejoin: miter; stroke-miterlimit: 10; fill: rgb(115,107,77); fill-rule: nonzero; opacity: 1;" vector-effect="non-scaling-stroke"  transform=" translate(-222.63, -283.75)" d="M 214.07021 300.71443 C 213.95008 299.33298 214.2504 297.35089999999997 215.09128 295.78926 L 216.17241 293.68705 L 227.10388 293.68705 L 227.46426 295.78926 C 227.70451 297.3509 227.46426 299.33298 226.80357 300.71443 L 240.01744000000002 300.71443 C 238.93631000000002 299.33298 237.85517000000002 297.35089999999997 237.61492 295.78926 L 232.74981000000002 266.77881 L 221.39790000000002 266.77881 C 222.05859 267.73982 222.41897000000003 268.76089 222.83941000000002 269.84202000000005 L 209.32523 295.78925000000004 C 208.48435 297.35089000000005 206.86265 299.33297000000005 205.24094 300.71442 z M 218.635 289.0622 L 224.52118 277.47003 L 226.38313 289.0622 z" stroke-linecap="round" />
</g>
<g transform="matrix(1 0 0 1 525.58 571.43)"  >
<path style="stroke: none; stroke-width: 1; stroke-dasharray: none; stroke-linecap: butt; stroke-dashoffset: 0; stroke-linejoin: miter; stroke-miterlimit: 10; fill: rgb(115,107,77); fill-rule: nonzero; opacity: 1;" vector-effect="non-scaling-stroke"  transform=" translate(-255.72, -283.75)" d="M 254.85301 300.71443 C 254.79295000000002 299.27292 255.5137 297.35089999999997 256.41465 295.78926 L 269.02789 271.70398 C 269.80871 270.14234 271.55054 268.16026 273.11218 266.77881 L 264.28291 266.77881 C 264.4631 268.16026 264.04266 270.14234000000005 263.26184 271.70398 L 254.91308 287.62068 L 253.77188 290.32352 L 253.65175000000002 287.62068 L 250.88885000000002 271.70398 C 250.58853000000002 270.14234 250.94891 268.16026 251.54954 266.77881 L 238.33567 266.77881 C 239.47687 268.16026 240.43788 270.14234000000005 240.73819 271.70398 L 244.88254 295.78926 C 245.12279 297.3509 245.24292 299.03266 244.70235 300.71443 z" stroke-linecap="round" />
</g>
<g transform="matrix(1 0 0 1 555.4 571.43)"  >
<path style="stroke: none; stroke-width: 1; stroke-dasharray: none; stroke-linecap: butt; stroke-dashoffset: 0; stroke-linejoin: miter; stroke-miterlimit: 10; fill: rgb(115,107,77); fill-rule: nonzero; opacity: 1;" vector-effect="non-scaling-stroke"  transform=" translate(-285.55, -283.75)" d="M 277.85715 283.71659 L 277.85715 283.71659 C 278.45778 277.47003 281.521 271.22348 286.56629 271.22348 C 291.73170999999996 271.22348 293.77385 277.47004 293.17321999999996 283.71659 C 292.69271999999995 290.02321 289.62949999999995 296.26976 284.52413999999993 296.26976 C 279.4187799999999 296.26976 277.37663999999995 290.02320000000003 277.85713999999996 283.71659 z M 303.38394 283.71659 L 303.38394 283.71659 C 304.88552 275.18764 300.50091 266.59862 288.60843 266.59862 C 276.71595 266.59862 269.20807 275.18762999999996 267.70649 283.71659 C 266.20491 292.30559999999997 270.64957999999996 300.89462 282.54206 300.89462 C 294.43453999999997 300.89462 301.88236 292.30561 303.38392999999996 283.71659 z" stroke-linecap="round" />
</g>
<g transform="matrix(1 0 0 1 592.7 571.43)"  >
<path style="stroke: none; stroke-width: 1; stroke-dasharray: none; stroke-linecap: butt; stroke-dashoffset: 0; stroke-linejoin: miter; stroke-miterlimit: 10; fill: rgb(115,107,77); fill-rule: nonzero; opacity: 1;" vector-effect="non-scaling-stroke"  transform=" translate(-322.85, -283.75)" d="M 315.1563 283.71659 L 315.1563 283.71659 C 315.75693 277.47003 318.82015 271.22348 323.86544 271.22348 C 329.03085999999996 271.22348 331.073 277.47004 330.47236999999996 283.71659 C 329.99186999999995 290.02321 326.92864999999995 296.26976 321.82328999999993 296.26976 C 316.7179299999999 296.26976 314.67578999999995 290.02320000000003 315.15628999999996 283.71659 z M 340.68309 283.71659 L 340.68309 283.71659 C 342.18467 275.18764 337.80006 266.59862 325.90758 266.59862 C 314.0151 266.59862 306.50722 275.18762999999996 305.00563999999997 283.71659 C 303.50406 292.30559999999997 307.94872999999995 300.89462 319.84121 300.89462 C 331.73368999999997 300.89462 339.18151 292.30561 340.68308 283.71659 z" stroke-linecap="round" />
</g>
<g transform="matrix(1 0 0 1 626.57 571.43)"  >
<path style="stroke: none; stroke-width: 1; stroke-dasharray: none; stroke-linecap: butt; stroke-dashoffset: 0; stroke-linejoin: miter; stroke-miterlimit: 10; fill: rgb(115,107,77); fill-rule: nonzero; opacity: 1;" vector-effect="non-scaling-stroke"  transform=" translate(-356.72, -283.75)" d="M 363.86742 283.71659 L 363.86742 283.71659 C 362.66616 290.6839 358.40168 296.26976 354.19727 296.26976 C 353.11614000000003 296.26976 352.33532 296.14963 351.67462 295.90938 L 355.9391 271.58385 C 356.71992 271.3436 357.50074 271.22346999999996 358.58187 271.22346999999996 C 362.78628 271.22346999999996 365.12874 276.80933 363.86742 283.71657999999996 z M 345.78845 271.70398 L 345.78845 271.70398 L 341.52397 295.78926 C 341.22365 297.3509 340.26265 299.33298 339.12145000000004 300.71443 C 343.86643000000004 300.71443 348.61141000000003 300.89462 353.35639000000003 300.89462 C 365.24887 300.89462 372.5165 292.30561 374.01807 283.71659 C 375.51965 275.18764 371.31523000000004 266.59862 359.42275 266.59862 C 354.67777 266.59862 349.81266 266.77880999999996 345.06768 266.77880999999996 C 345.72837 268.16025999999994 346.02869 270.14234 345.78844 271.70397999999994 z" stroke-linecap="round" />
</g>
<g transform="matrix(1 0 0 1 424.37 620.85)"  >
<path style="stroke: none; stroke-width: 1; stroke-dasharray: none; stroke-linecap: butt; stroke-dashoffset: 0; stroke-linejoin: miter; stroke-miterlimit: 10; fill: rgb(115,107,77); fill-rule: nonzero; opacity: 1;" vector-effect="non-scaling-stroke"  transform=" translate(-154.51, -333.17)" d="M 157.33651 350.13522 L 157.33651 350.13522 L 170.55038000000002 350.13522 C 169.94975000000002 348.75377000000003 169.58937000000003 346.77169 169.88969000000003 345.21005 L 174.15417000000002 321.12477 C 174.39442000000003 319.56313 175.41549000000003 317.58105 176.49663 316.19960000000003 L 163.28276 316.19960000000003 C 163.28276 317.58105 162.74219 319.56313000000006 161.78118 321.12477 L 154.63368 332.47668 L 151.57047 321.12477 C 151.08997 319.56313 151.21009 317.58105 151.6906 316.19960000000003 L 138.47672999999998 316.19960000000003 C 139.13741999999996 317.58105 139.43773999999996 319.56313000000006 139.19749 321.12477 L 134.93301 345.21005 C 134.63269 346.77169000000004 133.67168999999998 348.75377000000003 132.53049 350.13522 L 141.35976 350.13522 C 140.69907 348.75377000000003 140.33868999999999 346.77169 140.63899999999998 345.21005 L 143.52202999999997 328.93297 L 149.40820999999997 350.13522 L 162.62207999999998 328.99303 L 159.73905 345.21004999999997 C 159.43873 346.77169 158.47772999999998 348.75377 157.33652999999998 350.13521999999995 z" stroke-linecap="round" />
</g>
<g transform="matrix(1 0 0 1 462.57 620.85)"  >
<path style="stroke: none; stroke-width: 1; stroke-dasharray: none; stroke-linecap: butt; stroke-dashoffset: 0; stroke-linejoin: miter; stroke-miterlimit: 10; fill: rgb(115,107,77); fill-rule: nonzero; opacity: 1;" vector-effect="non-scaling-stroke"  transform=" translate(-192.71, -333.17)" d="M 185.02557 333.13738 L 185.02557 333.13738 C 185.62619999999998 326.89082 188.68941999999998 320.64427 193.73470999999998 320.64427 C 198.90013 320.64427 200.94226999999998 326.89083 200.34163999999998 333.13738 C 199.86113999999998 339.444 196.79791999999998 345.69055000000003 191.69256 345.69055000000003 C 186.5872 345.69055000000003 184.54505999999998 339.44399000000004 185.02555999999998 333.13738 z M 210.55236 333.13738 L 210.55236 333.13738 C 212.05393999999998 324.60843 207.66933 316.01941 195.77685 316.01941 C 183.88437 316.01941 176.37649 324.60841999999997 174.87491 333.13738 C 173.37333 341.72639 177.818 350.31541 189.71048 350.31541 C 201.60296 350.31541 209.05077999999997 341.7264 210.55235 333.13738 z" stroke-linecap="round" />
</g>
<g transform="matrix(1 0 0 1 497.31 620.85)"  >
<path style="stroke: none; stroke-width: 1; stroke-dasharray: none; stroke-linecap: butt; stroke-dashoffset: 0; stroke-linejoin: miter; stroke-miterlimit: 10; fill: rgb(115,107,77); fill-rule: nonzero; opacity: 1;" vector-effect="non-scaling-stroke"  transform=" translate(-227.46, -333.17)" d="M 209.11085 350.13522 L 209.11085 350.13522 L 217.94012 350.13522 C 217.27943000000002 348.75377000000003 216.91905 346.77169 217.21936 345.21005 L 220.40269999999998 327.07101 L 232.41530999999998 350.13522 L 239.86312999999998 350.13522 C 239.20244 348.75377000000003 238.84205999999998 346.77169 239.14236999999997 345.21005 L 243.40684999999996 321.12477 C 243.64709999999997 319.56313 244.66816999999998 317.58105 245.80936999999997 316.19960000000003 L 236.98009999999996 316.19960000000003 C 237.58072999999996 317.58105 237.88104999999996 319.56313000000006 237.64078999999995 321.12477 L 235.17820999999995 334.81914 L 225.20774999999995 316.19960000000003 L 215.05709999999993 316.19960000000003 C 215.71778999999992 317.58105 216.01810999999992 319.56313000000006 215.77785999999995 321.12477 L 211.51337999999996 345.21005 C 211.21305999999996 346.77169000000004 210.25205999999994 348.75377000000003 209.11085999999995 350.13522 z" stroke-linecap="round" />
</g>
<g transform="matrix(1 0 0 1 530.95 620.85)"  >
<path style="stroke: none; stroke-width: 1; stroke-dasharray: none; stroke-linecap: butt; stroke-dashoffset: 0; stroke-linejoin: miter; stroke-miterlimit: 10; fill: rgb(115,107,77); fill-rule: nonzero; opacity: 1;" vector-effect="non-scaling-stroke"  transform=" translate(-261.1, -333.17)" d="M 263.16758 350.13522 C 261.42575 345.21005 265.20972 326.77070000000003 266.29086 320.82446 C 270.37515 320.82446 274.45943 322.62635 276.20126 324.96880999999996 L 276.56164 316.19960999999995 L 248.39208000000002 316.19960999999995 L 245.62918000000002 324.96880999999996 C 248.21189 322.62634999999995 253.01693000000003 320.82446 257.16128000000003 320.82446 C 256.08015000000006 326.7707 253.37731000000002 345.21004999999997 249.89365000000004 350.13522 z" stroke-linecap="round" />
</g>
<g transform="matrix(1 0 0 1 554.43 620.85)"  >
<path style="stroke: none; stroke-width: 1; stroke-dasharray: none; stroke-linecap: butt; stroke-dashoffset: 0; stroke-linejoin: miter; stroke-miterlimit: 10; fill: rgb(115,107,77); fill-rule: nonzero; opacity: 1;" vector-effect="non-scaling-stroke"  transform=" translate(-284.58, -333.17)" d="M 276.02107 350.13522 C 275.90094 348.75377000000003 276.20126 346.77169 277.04214 345.21005 L 278.12327 343.10784 L 289.05474 343.10784 L 289.41512 345.21005 C 289.65537 346.77169000000004 289.41512 348.75377000000003 288.75443 350.13522 L 301.9683 350.13522 C 300.88717 348.75377000000003 299.80603 346.77169 299.56578 345.21005 L 294.70067 316.19960000000003 L 283.34876 316.19960000000003 C 284.00945 317.16061 284.36983000000004 318.18168000000003 284.79027 319.26281000000006 L 271.27609 345.21004000000005 C 270.43521 346.77168000000006 268.81351 348.75376000000006 267.1918 350.13521000000003 z M 280.58586 338.48299 L 286.47204000000005 326.89081999999996 L 288.33399000000003 338.48299 z" stroke-linecap="round" />
</g>
<g transform="matrix(1 0 0 1 590.38 620.85)"  >
<path style="stroke: none; stroke-width: 1; stroke-dasharray: none; stroke-linecap: butt; stroke-dashoffset: 0; stroke-linejoin: miter; stroke-miterlimit: 10; fill: rgb(115,107,77); fill-rule: nonzero; opacity: 1;" vector-effect="non-scaling-stroke"  transform=" translate(-320.53, -333.17)" d="M 301.66799 350.13522 L 301.66799 350.13522 L 331.57937999999996 350.13522 L 335.90391999999997 335.90028 C 331.75957 340.94558 321.78911 345.51037 315.72274 345.51037 L 339.38758 316.19961 L 310.97776 316.19961 L 307.25385 327.9119 C 311.63845 323.40717 319.50671 320.82446 325.33282 320.82446 z" stroke-linecap="round" />
</g>
<g transform="matrix(1 0 0 1 620.92 620.85)"  >
<path style="stroke: none; stroke-width: 1; stroke-dasharray: none; stroke-linecap: butt; stroke-dashoffset: 0; stroke-linejoin: miter; stroke-miterlimit: 10; fill: rgb(115,107,77); fill-rule: nonzero; opacity: 1;" vector-effect="non-scaling-stroke"  transform=" translate(-351.07, -333.17)" d="M 335.1231 350.13522 L 335.1231 350.13522 L 360.83008 350.13522 L 365.15462 335.90028 C 361.43071000000003 341.12576 353.50239000000005 345.51037 347.61621 345.51037 L 349.53823 334.63896 C 352.42126 335.41978 354.9439 337.16161 356.68573 340.28489 L 359.20838 326.23014 C 356.32534999999996 329.35342 353.14200999999997 331.09525 350.01874 331.81600000000003 L 352.00082 320.82446000000004 C 357.2263 320.82446000000004 363.77317999999997 322.14585000000005 366.65619999999996 324.96881 L 367.01658 316.19961 L 341.06935 316.19961 C 341.73004 317.58106 342.03036 319.56314000000003 341.79010999999997 321.12478 L 337.52563 345.21006 C 337.22531 346.7717 336.26430999999997 348.75378 335.12311 350.13523 z" stroke-linecap="round" />
</g>
<g transform="matrix(1 0 0 1 651.44 620.76)"  >
<path style="stroke: none; stroke-width: 1; stroke-dasharray: none; stroke-linecap: butt; stroke-dashoffset: 0; stroke-linejoin: miter; stroke-miterlimit: 10; fill: rgb(115,107,77); fill-rule: nonzero; opacity: 1;" vector-effect="non-scaling-stroke"  transform=" translate(-381.59, -333.08)" d="M 364.3738 350.13522 L 364.3738 350.13522 L 376.86691 350.13522 C 376.50653 348.63364 376.62666 346.77169 376.92697000000004 345.21005 L 378.36848000000003 336.86129 C 381.97226 336.86129 383.35371000000004 346.95188 383.89428000000004 350.13522 L 397.10815 350.13522 C 393.02386 345.08992 392.66349 338.42293 389.42008000000004 335.47984 C 393.98487000000006 334.45877 397.76884000000007 331.21536000000003 398.60972000000004 326.41032 C 399.69085 320.40402 396.44745000000006 316.01941 385.15560000000005 316.01941 C 380.41062000000005 316.01941 375.06501000000003 316.1996 370.32003000000003 316.1996 C 370.98072 317.58104999999995 371.28104 319.56313 371.04079 321.12476999999996 L 366.77631 345.21004999999997 C 366.47599 346.77169 365.51499 348.75377 364.37379000000004 350.13521999999995 z M 383.83422 320.64427 L 383.83422 320.64427 C 387.438 320.64427 388.93958000000003 323.70748000000003 388.39901000000003 326.83076 C 387.79838 330.07416 385.3358 333.43769 381.61189 333.43769 C 380.53076000000004 333.43769 379.74994000000004 333.31755999999996 379.02918 333.13737 L 381.19145 321.00464 C 381.97227 320.76439 382.75309 320.64426 383.83421999999996 320.64426 z" stroke-linecap="round" />
</g>
<g transform="matrix(1 0 0 1 677.74 620.85)"  >
<path style="stroke: none; stroke-width: 1; stroke-dasharray: none; stroke-linecap: butt; stroke-dashoffset: 0; stroke-linejoin: miter; stroke-miterlimit: 10; fill: rgb(115,107,77); fill-rule: nonzero; opacity: 1;" vector-effect="non-scaling-stroke"  transform=" translate(-407.89, -333.17)" d="M 398.30941 350.13522 L 398.30941 350.13522 L 411.52328 350.13522 C 410.92265 348.75377000000003 410.56227 346.77169 410.86259 345.21005 L 415.12707 321.12477 C 415.36732 319.56313 416.38839 317.58105 417.46953 316.19960000000003 L 404.25566000000003 316.19960000000003 C 404.91635 317.58105 405.21667 319.56313000000006 404.97642 321.12477 L 400.71194 345.21005 C 400.41162 346.77169000000004 399.45062 348.75377000000003 398.30942000000005 350.13522 z" stroke-linecap="round" />
</g>
<g transform="matrix(1 0 0 1 540 477.43)"  >
<path style="stroke: none; stroke-width: 1; stroke-dasharray: none; stroke-linecap: butt; stroke-dashoffset: 0; stroke-linejoin: miter; stroke-miterlimit: 10; fill: rgb(115,107,77); fill-rule: evenodd; opacity: 1;" vector-effect="non-scaling-stroke"  transform=" translate(-275, -181.32)" d="M 229.12442 121.78549 C 227.71991 120.38489 226.03464 119.68459999999999 224.06861999999998 119.68459999999999 C 222.08897 119.68459999999999 220.40041999999997 120.38332999999999 219.00295999999997 121.78079 C 217.60549999999998 123.17824999999999 216.90676999999997 124.86681 216.90676999999997 126.84644999999999 C 216.90676999999997 129.02161999999998 217.69605999999996 130.79456 219.27463999999998 132.16523999999998 L 219.39580999999998 150.09313999999998 L 202.04296999999997 195.13067999999998 L 199.31911999999997 195.13067999999998 L 199.31911999999997 196.30476 C 199.31911999999997 207.22366 209.76838999999998 216.09967999999998 222.63625999999996 216.09967999999998 C 235.48064999999997 216.09967999999998 245.95339999999996 207.22366999999997 245.97687999999997 196.30476 L 245.97687999999997 195.13067999999998 L 243.51131999999996 195.13067999999998 L 225.52447999999995 148.42595 C 225.45403999999996 148.23809 225.36010999999996 148.07373 225.26617999999996 147.90936 L 225.16496999999995 133.93222 C 226.33966999999996 133.76456 227.39829999999995 133.3192 228.34083999999996 132.59612 C 231.55099999999996 134.49577000000002 235.23946999999995 135.46415000000002 239.33158999999995 135.46415000000002 C 241.98499999999996 135.46415000000002 244.84973999999994 135.04148 247.80840999999995 134.21963000000002 C 253.35004999999995 132.66985000000003 257.90545999999995 130.11037000000002 259.97182999999995 128.81888000000004 C 260.1362 128.84236000000004 260.30056999999994 128.86584000000005 260.48841999999996 128.86584000000005 L 290.07511999999997 128.86584000000005 C 292.07104999999996 130.08688000000004 296.64993999999996 132.66984000000005 302.1681 134.21962000000005 C 305.12676999999996 135.04147000000006 307.96804 135.46414000000004 310.64491999999996 135.46414000000004 C 314.56632999999994 135.46414000000004 318.11204 134.57184000000004 321.23508 132.81073000000004 C 322.08041 133.37429000000003 323.04316 133.77347000000003 324.05286 133.93785000000003 L 323.98242 149.78787000000003 L 306.53565 194.66103000000004 L 304.04661 194.66103000000004 L 304.04661 195.83511000000004 C 304.04661 206.75401000000005 314.49588 215.63003000000003 327.36375 215.63003000000003 C 340.23161999999996 215.63003000000003 350.68089 206.75402000000003 350.68089 195.83511000000004 L 350.68089 194.66103000000004 L 347.98051999999996 194.66103000000004 L 329.9936799999999 148.40245000000004 C 329.9701999999999 148.30852000000004 329.9232399999999 148.23808000000005 329.87627999999995 148.14415000000005 L 329.94671999999997 132.29413000000005 C 331.49649999999997 130.95568000000006 332.41227999999995 128.95976000000005 332.41227999999995 126.89338000000005 C 332.41227999999995 122.94849000000005 329.19530999999995 119.73152000000005 325.25041999999996 119.73152000000005 C 321.30553 119.73152000000005 318.08856 122.94849000000005 318.08856 126.89338000000005 L 318.08856 127.05775000000006 C 314.37847999999997 129.19457000000006 309.65869999999995 129.47635000000005 304.04661999999996 127.92657000000005 C 301.44016999999997 127.19864000000005 298.71631999999994 126.09501000000006 295.96898 124.63916000000006 C 294.27831 123.74686000000005 293.12771 122.99545000000006 292.70504999999997 122.71368000000007 L 292.63460999999995 122.57279000000007 L 292.30586999999997 122.45539000000007 C 291.76579999999996 122.12665000000007 291.15527999999995 121.93880000000007 290.49778999999995 121.93880000000007 L 260.51189999999997 121.93880000000007 C 260.18316 121.93880000000007 259.85441 121.98576000000007 259.54916 122.07969000000007 C 258.79774999999995 122.00925000000007 258.04634 122.19709000000007 257.41234 122.64325000000007 C 257.20101 122.78414000000006 252.19944999999998 126.18896000000007 245.97683999999998 127.90311000000007 C 240.0015 129.54306000000008 235.05769999999998 129.09832000000006 231.22762999999998 126.61022000000007 C 231.17831999999999 124.74313000000006 230.47723999999997 123.13488000000007 229.12438999999998 121.78547000000007 z M 228.85885 127.15172 L 228.88163 126.73703 C 228.86128 125.46527 228.38945 124.369 227.46616 123.44821 C 226.52001 122.50457 225.3875 122.03274 224.06862 122.03274 C 222.73738 122.03274 221.60228 122.50221 220.66333 123.44116000000001 C 219.72438 124.38011000000002 219.25491 125.51520000000001 219.25491 126.84645 C 219.25491 128.43803 219.88187 129.70665 221.13577999999998 130.65234 C 221.99363999999997 131.30591 222.93908 131.64193 223.97211 131.6604 L 224.00991 131.66017000000002 L 224.06861999999998 131.66017000000002 C 225.38812 131.66017000000002 226.51242 131.19555000000003 227.44151 130.26631000000003 C 227.58365 130.12746000000004 227.71537999999998 129.98375000000004 227.8367 129.83519000000004 C 228.43783000000002 129.06664000000004 228.80062 128.14123000000004 228.85885000000002 127.15173000000004 z M 239.35508 133.06906 C 235.91034 133.06906 232.79294 132.32070000000002 230.04959 130.80051 C 230.40573 130.27671 230.68225999999999 129.71465 230.87919 129.11430000000001 C 235.1486 131.49720000000002 240.42347999999998 131.84473000000003 246.61086 130.13387 C 253.20917 128.30231 258.51599 124.70964000000001 258.7508 124.54527 C 258.96213 124.40438 259.19695 124.35741 259.45525000000004 124.40438 L 259.78399 124.47482000000001 L 260.11273 124.33393000000001 C 260.23013 124.28697000000001 260.37103 124.26349 260.51192 124.26349 L 290.54476999999997 124.26349 C 290.68566 124.26349 290.82655 124.28697000000001 290.94395999999995 124.33393000000001 L 291.27269999999993 124.52179000000001 C 291.29617999999994 124.52179000000001 291.29617999999994 124.54527000000002 291.34313999999995 124.56875000000001 C 291.69535999999994 124.80357000000001 292.98684999999995 125.67238 294.91232999999994 126.68209 C 297.80055999999996 128.23187000000001 300.66529999999995 129.38246 303.45959999999997 130.15736 C 310.03441999999995 131.98892 315.59954 131.47232000000002 319.99057999999997 128.65454 L 320.62458 128.25535 L 320.53065 127.50393999999999 C 320.50717 127.29260999999998 320.48368999999997 127.08126999999999 320.48368999999997 126.86993999999999 C 320.48368999999997 124.21652999999999 322.64399 122.05622999999999 325.2974 122.05622999999999 C 327.95081 122.05622999999999 330.11111 124.21652999999999 330.11111 126.86993999999999 C 330.11111 128.41971999999998 329.3597 129.87557999999999 328.11518 130.76787 L 327.62207 131.12008999999998 L 327.55163 148.84862999999999 L 327.76295999999996 149.15389 C 327.78643999999997 149.17737 327.80992 149.22432999999998 327.8334 149.27129 L 346.38379 197.0092 L 348.2858 197.0092 C 347.55787 206.07306 338.44705 213.28189 327.36377 213.28189 C 316.28049999999996 213.28189 307.16967 206.09655 306.44174 197.0092 L 306.44174 196.98572 L 308.20284999999996 196.98572 L 326.30708999999996 150.39839999999998 L 326.37753 150.18706999999998 L 326.47146 131.66015999999996 L 325.29738 131.66015999999996 C 324.1233 131.66015999999996 323.01966999999996 131.23748999999995 322.15085999999997 130.48607999999996 L 321.49336999999997 129.92251999999996 L 320.76543999999996 130.36866999999995 C 317.87720999999993 132.15325999999996 314.49586999999997 133.06903999999994 310.71536 133.06903999999994 C 308.2498 133.06903999999994 305.61987 132.69333999999995 302.84905999999995 131.91844999999995 C 297.35437999999994 130.39215999999996 292.79898 127.73873999999995 291.08482999999995 126.65858999999995 L 290.8030499999999 126.47072999999995 L 260.53538999999995 126.47072999999995 C 260.41799 126.47072999999995 260.30056999999994 126.47072999999995 260.18316999999996 126.42376999999995 L 259.64309999999995 126.23590999999995 L 259.17346999999995 126.54116999999995 C 257.45931999999993 127.62131999999995 252.85693999999995 130.34516999999994 247.22137999999995 131.91842999999994 C 244.45055999999997 132.66983999999994 241.79714999999996 133.06901999999994 239.35507999999996 133.06901999999994 z M 325.27393 130.48609 C 324.78082 130.48609 324.31119 130.39216 323.86504 130.20431 C 322.50311000000005 129.64075 321.6343 128.32578999999998 321.6343 126.84644999999999 C 321.6343 124.85051999999999 323.27801 123.20682 325.27393 123.20682 C 325.814 123.20682 326.35408 123.32422 326.84719 123.55904 C 328.09171000000003 124.14607 328.91357 125.43755999999999 328.91357 126.84644999999999 C 328.91357 128.86586 327.26986 130.48608 325.27394 130.48608 z M 224.04514 130.50958 C 224.80782 130.50958 225.50021 130.29128 226.12232 129.85468 C 227.19542 129.123 227.71624 128.12253 227.68478 126.85327000000001 C 227.68087 125.85530000000001 227.32558999999998 125.00292 226.61894999999998 124.29613 C 225.90824999999998 123.58558000000001 225.0503 123.2303 224.04513999999998 123.2303 L 223.83802999999997 123.2303 L 223.79552999999999 123.23335 C 222.84374 123.30255 222.04115 123.68701 221.38772999999998 124.38676 C 220.73290999999998 125.08807 220.4055 125.91579 220.4055 126.86993 C 220.4055 127.87509 220.76077999999998 128.73304 221.47133 129.44374 C 222.18203 130.15429 223.03997999999999 130.50957 224.04514 130.50957 z M 325.27393 125.55497 C 324.56948 125.55497 323.98245000000003 126.142 323.98245000000003 126.84645 C 323.98245000000003 127.36304 324.28771 127.83267000000001 324.78082 128.04401000000001 C 324.94519 128.11445 325.10956 128.13794000000001 325.27393 128.13794000000001 C 325.97838 128.13794000000001 326.56541 127.55091000000002 326.56541 126.84646000000001 C 326.56541 126.35335 326.28362999999996 125.88372000000001 325.83747999999997 125.67238 C 325.64961999999997 125.60194 325.46178 125.55498 325.27392 125.55498 z M 225.33709 126.90352 C 225.34914999999998 127.32619 225.16841 127.66432 224.79489999999998 127.91792 L 224.77704999999997 127.93012999999999 C 224.55850999999998 128.08432 224.31453999999997 128.16143 224.04512999999997 128.16143 C 223.68836999999996 128.16143 223.38396999999998 128.03534 223.13192999999998 127.78314999999999 C 222.87973999999997 127.53111999999999 222.75365 127.22671 222.75365 126.86994999999999 C 222.75365 126.53307 222.87043 126.23955 223.10398999999998 125.98939999999999 C 223.33019 125.74707 223.60539999999997 125.61008999999999 223.9296 125.57847999999998 L 224.04513 125.57847999999998 C 224.40189 125.57847999999998 224.70629 125.70456999999999 224.95833 125.95675999999999 C 225.21052 126.20879 225.33660999999998 126.51319999999998 225.33660999999998 126.86995999999999 L 225.33660999999998 126.88663 z M 263.57227 134.83181 C 262.95799 134.20814 262.5783 133.35294 262.5783 132.41156999999998 C 262.5783 130.50956 264.12808 128.95978999999997 266.03008 128.95978999999997 L 285.00314 128.95978999999997 C 286.90515 128.95978999999997 288.45491999999996 130.50956999999997 288.45491999999996 132.41156999999998 C 288.45491999999996 133.34238 288.08367 134.18865 287.48184999999995 134.81043999999997 C 288.60801999999995 134.18888999999996 289.85042999999996 133.84393999999998 291.15529999999995 133.84393999999998 C 293.29211999999995 133.84393999999998 295.35848999999996 134.78319999999997 297.02567999999997 136.47386999999998 C 299.20946 138.72808999999998 300.43049999999994 142.01550999999998 300.36004999999994 145.49076999999997 C 300.21915999999993 151.68988999999996 296.36818999999997 154.67203999999998 294.0670099999999 155.89307999999997 C 293.17470999999995 156.36270999999996 292.18848999999994 156.33922999999996 291.3196699999999 155.82263999999998 C 290.2395199999999 155.18864 289.5820399999999 153.89715999999999 289.5820399999999 152.46478 C 289.5820399999999 150.93849 290.3334499999999 149.55307 291.53100999999987 148.98951 C 292.56419999999986 148.47292 293.8087199999999 147.46322 293.8556799999999 145.44379999999998 C 293.8791599999999 144.24623999999997 293.4799799999999 143.09564999999998 292.7520499999999 142.36772 C 292.4233099999999 142.03897999999998 291.88322999999986 141.61631 291.1552999999999 141.61631 C 289.9107799999999 141.61631 288.8071499999999 142.90779 288.5253699999999 144.64542 L 288.5253699999999 225.96188999999998 C 288.5021199999999 227.73638999999997 287.2944699999999 229.18589999999998 285.8033899999999 229.20209999999997 C 287.3214699999999 229.56441999999998 288.4549199999999 230.93362999999997 288.4549199999999 232.56018999999998 C 288.4549199999999 234.46219999999997 286.9051399999999 236.01197 285.0031399999999 236.01197 L 266.03007999999994 236.01197 C 264.1280699999999 236.01197 262.57829999999996 234.46219 262.57829999999996 232.56018999999998 C 262.57829999999996 230.92986999999997 263.71691999999996 229.55830999999998 265.23992999999996 229.19974999999997 C 263.78759999999994 229.13235999999998 262.62525999999997 227.72722999999996 262.62525999999997 226.00884999999997 L 262.62525999999997 144.88022999999998 C 262.60177999999996 144.73933999999997 262.57829999999996 144.62193 262.53132999999997 144.50453 L 262.48436999999996 144.4106 L 262.46088999999995 144.31667 C 262.08518999999995 142.74340999999998 261.02851999999996 141.63977999999997 259.87791999999996 141.63977999999997 C 258.44554999999997 141.66325999999998 257.24798999999996 143.42436999999998 257.20102999999995 145.56118999999998 C 257.15406999999993 147.36926999999997 257.83502999999996 148.56682999999998 259.22043999999994 149.08342 C 260.6293299999999 149.60001 261.5685899999999 151.12631 261.5685899999999 152.88742 C 261.5685899999999 154.27283 260.9815599999999 155.51735 260.0188099999999 156.24527999999998 C 259.2673999999999 156.80883999999998 258.3281399999999 156.99668999999997 257.4358399999999 156.73838999999998 C 254.94679999999994 156.01046 250.76708999999994 153.59186999999997 250.69663999999992 145.49075 C 250.6731599999999 141.94503999999998 251.9176799999999 138.63414999999998 254.12493999999992 136.40339999999998 C 255.7451599999999 134.75968999999998 257.8115399999999 133.86738999999997 259.90138999999994 133.86738999999997 C 261.2015599999999 133.86738999999997 262.44443999999993 134.21068999999997 263.57224999999994 134.83177999999998 z M 264.92645 132.3881 C 264.92645 131.77758 265.41956 131.28447 266.03008 131.28447 L 285.00314 131.28447 C 285.61366 131.28447 286.10677 131.77758 286.10677 132.3881 C 286.10677 132.99862000000002 285.61366 133.49173000000002 285.00314 133.49173000000002 L 266.03008 133.49173000000002 C 265.41956 133.49173000000002 264.92645 132.99862000000002 264.92645 132.3881 z M 222.63625 213.75153 C 211.55298 213.75153 202.44215 206.56619 201.71421999999998 197.47884 L 201.71421999999998 197.45535999999998 L 203.66319 197.45535999999998 L 221.74394999999998 150.49233999999998 L 221.62654999999998 133.58565 C 222.00224999999998 133.72654 222.40143999999998 133.84394999999998 222.80062999999998 133.91439 L 222.89455999999998 148.75471 L 223.19982 149.08345 C 223.24678 149.15389 223.29375 149.20085 223.31722 149.27131 L 241.86760999999998 197.47885 L 243.55828 197.47885 C 242.83035 206.54271 233.71953 213.75154 222.63625 213.75154 z M 266.03008 135.86336 L 285.00314 135.86336 C 285.44834999999995 135.86336 285.87453999999997 135.77836 286.26574 135.62385 C 283.6762 137.68271000000001 281.95054 141.32492 281.95054 145.4673 C 281.95054 145.88997 281.97402 146.28915 281.9975 146.66486 L 281.9975 226.00889 C 281.9975 227.50443 282.87805000000003 228.7628 284.06388 229.10845 L 276.54651 229.10845 C 277.85443000000004 228.77361 278.8275 227.58239 278.8275 226.17326 L 278.8275 144.76286 C 278.8275 143.09566999999998 277.46557 141.73375 275.79839 141.73375 L 275.30528 141.73375 C 273.63809 141.73375 272.27617 143.09568 272.27617 144.76286 L 272.27617 226.17325999999997 C 272.27617 227.58238999999998 273.24924 228.77359999999996 274.55715999999995 229.10844999999998 L 267.05833999999993 229.10844999999998 C 268.24720999999994 228.75997999999998 269.13316999999995 227.48305999999997 269.1531299999999 225.98540999999997 L 269.1531299999999 144.95072 C 269.1531299999999 144.5985 269.1061699999999 144.26976 269.0122399999999 143.9645 C 268.6503899999999 140.41925999999998 267.0313399999999 137.40893 264.7592699999999 135.62058 C 265.1528199999999 135.7772 265.5815999999999 135.86337999999998 266.0300899999999 135.86337999999998 z M 284.27521 145.49078 C 284.27521 140.37181 287.35129 136.21558 291.13181000000003 136.21558 C 292.61114000000003 136.21558 294.09048 136.89654 295.31152000000003 138.16455 C 297.04915000000005 139.94914 298.03537000000006 142.62604 297.96493000000004 145.49078 C 297.84753000000006 150.25753 295.14715 152.67612 292.91641000000004 153.87368 C 292.75204 153.96761 292.61115000000007 153.96761 292.47026000000005 153.87368 C 292.18848 153.68582 291.88323 153.19272 291.88323 152.51175 C 291.88323 151.83079 292.21197 151.31419 292.51723000000004 151.14982 C 293.85568000000006 150.49233 296.08642000000003 148.91908 296.15686000000005 145.56122 C 296.18034000000006 143.70618 295.54634000000004 141.96855 294.37227000000007 140.77098999999998 C 293.4564900000001 139.83173 292.3058900000001 139.31513999999999 291.10834000000006 139.31513999999999 C 288.61930000000007 139.31513999999999 286.52945000000005 141.49892 286.1302600000001 144.50456 L 286.1302600000001 225.98541 C 286.1302600000001 226.52548000000002 285.84848000000005 226.83074 285.7545600000001 226.83074 L 284.69790000000006 226.83074 C 284.60397000000006 226.83074 284.32220000000007 226.52548 284.32220000000007 225.98541 L 284.32220000000007 146.52397000000002 C 284.29872000000006 146.19523 284.27524000000005 145.84301000000002 284.27524000000005 145.49078000000003 z M 264.94993 144.73937 C 264.92645 144.36367 264.856 144.01144000000002 264.71511 143.65922 C 264.08110999999997 141.07625000000002 262.10866 139.29166 259.85443999999995 139.29166 L 259.80747999999994 139.29166 C 257.0836299999999 139.31514 254.87635999999995 142.06248 254.80591999999993 145.51426 C 254.73547999999994 149.34175000000002 256.9896999999999 150.77412 258.35162999999994 151.29071000000002 C 258.7508199999999 151.43160000000003 259.1734799999999 152.04212 259.1734799999999 152.88746 C 259.1734799999999 153.63887 258.84473999999994 154.15546 258.5629599999999 154.36679 C 258.3046599999999 154.55465 258.11680999999993 154.50768000000002 258.0463699999999 154.48419 C 254.78243999999992 153.54493000000002 253.0448099999999 150.44537000000003 252.99784999999991 145.49077 C 252.9743699999999 142.62603 254.00754999999992 139.85521 255.74518999999992 138.0941 C 256.96622999999994 136.87306 258.3751199999999 136.23906 259.85444999999993 136.23906 C 263.2827499999999 136.23906 266.19445999999994 139.71433 266.6406099999999 144.3167 L 266.6406099999999 144.4341 L 266.68756999999994 144.5515 C 266.73452999999995 144.6689 266.75800999999996 144.8098 266.75800999999996 144.95069 L 266.75800999999996 225.96191 C 266.75800999999996 226.50198 266.47622999999993 226.80723999999998 266.38230999999996 226.80723999999998 L 265.32564999999994 226.80723999999998 C 265.23171999999994 226.80723999999998 264.94994999999994 226.50197999999997 264.94994999999994 225.96191 z M 274.62432 144.76285 C 274.62432 144.38715 274.95306 144.08189 275.30528000000004 144.08189 L 275.79839000000004 144.08189 C 276.17409000000004 144.08189 276.47935000000007 144.41063 276.47935000000007 144.76285 L 276.47935000000007 226.17325 C 276.47935000000007 226.54895 276.1506100000001 226.85421 275.79839000000004 226.85421 L 275.30528000000004 226.85421 C 274.92958000000004 226.85421 274.62432 226.52546999999998 274.62432 226.17325 z M 240.5996 197.47884 L 222.75365000000002 151.10286 L 204.90770000000003 197.47884 z M 309.42391 197.00921 L 327.26986 151.10286 L 345.11581 197.00921 z M 312.85221 194.66106 L 341.68751000000003 194.66106 L 327.26987 157.58375999999998 z M 222.75366 157.6542 L 237.19478999999998 195.13069000000002 L 208.31252999999998 195.13069000000002 z M 264.92645 232.56022 C 264.92645 231.94969999999998 265.41956 231.45658999999998 266.03008 231.45658999999998 L 285.00314 231.45658999999998 C 285.61366 231.45658999999998 286.10677 231.94969999999998 286.10677 232.56022 C 286.10677 233.17074 285.61366 233.66385 285.00314 233.66385 L 266.03008 233.66385 C 265.41956 233.66385 264.92645 233.17074 264.92645 232.56022 z M 260.51193 242.96253 L 290.49782 242.96253 C 292.39983 242.96253 293.9496 241.41275 293.9496 239.51074999999997 C 293.9496 237.60873999999998 292.39982 236.05896999999996 290.49782 236.05896999999996 L 260.51193 236.05896999999996 C 258.60992 236.05896999999996 257.06015 237.60874999999996 257.06015 239.51074999999997 C 257.06015 241.41275999999996 258.60993 242.96253 260.51193 242.96253 z M 259.4083 239.48726 C 259.4083 238.87673999999998 259.90141 238.38362999999998 260.51193 238.38362999999998 L 290.49782 238.38362999999998 C 291.10834 238.38362999999998 291.60145 238.87673999999998 291.60145 239.48726 C 291.60145 240.09778 291.10834 240.59089 290.49782 240.59089 L 260.51193 240.59089 C 259.90141 240.59089 259.4083 240.09778 259.4083 239.48726 z" stroke-linecap="round" />
</g>
<g transform="matrix(1 0 0 1 390.37 665.55)"  >
<path style="stroke: none; stroke-width: 1; stroke-dasharray: none; stroke-linecap: butt; stroke-dashoffset: 0; stroke-linejoin: miter; stroke-miterlimit: 4; fill: rgb(115,107,77); fill-rule: nonzero; opacity: 0.040000010281801224;" vector-effect="non-scaling-stroke"  transform=" translate(-120.51, -377.87)" d="M 129.52 370.3 C 130.85469002096735 371.9014152508758 131.74448208859528 373.825849257606 132.10000000000002 375.88 C 132.26209924306502 376.87145310121815 132.29905501935622 377.8793379091597 132.21000000000004 378.88 C 132.12204690184697 379.87989563746567 131.9069798916472 380.8644992935365 131.57000000000005 381.81 C 131.21481408975043 382.77171812052427 130.74116447466537 383.6854251794118 130.16000000000005 384.53000000000003 C 129.55828751957097 385.3961823176146 128.8417412699733 386.17664583830316 128.03000000000006 386.85 C 127.22767766880379 387.526339829712 126.3401072165711 388.0945193995125 125.39000000000006 388.54 C 124.45861890430575 388.95299525582 123.48191620255464 389.2550682563616 122.48000000000006 389.44 C 121.4884825943438 389.60067826000613 120.48118334525535 389.64097022996964 119.48000000000006 389.56 C 118.4806820749891 389.4682840454965 117.49654459370866 389.2533188618721 116.55000000000005 388.92 C 115.58745080467376 388.5796074914791 114.67314829073945 388.11573342190957 113.83000000000006 387.54 C 112.1036327443428 386.3174535014202 110.72512698882683 384.6666928591898 109.83000000000006 382.75 C 109.40868188268828 381.8191086837417 109.1095337222364 380.8376338202367 108.94000000000005 379.83 C 108.7726826452176 378.8392332444426 108.72901535334638 377.83152650895295 108.81000000000006 376.83 C 108.89583205740156 375.8330355423754 109.11096992912928 374.8514690026176 109.45000000000006 373.90999999999997 C 110.1524698336822 371.96236427464333 111.36044939575751 370.2366791859643 112.95000000000006 368.90999999999997 C 113.75753986721962 368.2258711524062 114.65610961015024 367.65711352485835 115.62000000000006 367.21999999999997 C 116.54907140155728 366.7895544339029 117.53087815628051 366.48358041102676 118.54000000000005 366.30999999999995 C 119.52940484595327 366.1293350820261 120.53932608662386 366.08893823239924 121.54000000000005 366.18999999999994 C 123.56868962234645 366.3521729589324 125.51979690732266 367.04161016210423 127.20000000000006 368.18999999999994 C 128.07221041777103 368.7876857493986 128.85937695153962 369.50084517315474 129.54000000000005 370.30999999999995 M 128.14000000000004 379.06999999999994 C 127.81253559257388 379.88246155711437 127.40379169528968 380.65974503391715 126.92000000000004 381.38999999999993 C 126.41296528479958 382.1378736957971 125.80371821817161 382.8110748743916 125.11000000000004 383.38999999999993 C 124.40854852040295 383.9903906341423 123.60146975751441 384.45496958588905 122.73000000000005 384.75999999999993 C 121.04065100873758 385.3557175071203 119.17579939004473 385.1878443672771 117.62000000000005 384.29999999999995 C 115.83723838766858 383.2744988019927 114.47377549485594 381.6525091788546 113.77000000000005 379.71999999999997 C 113.47829972162239 378.8653681296698 113.36264325697313 377.9605263768255 113.43000000000005 377.05999999999995 C 113.50679566375659 376.19102007032114 113.76938729263783 375.3486806893644 114.20000000000005 374.5899999999999 C 114.64178412405698 373.7803794121871 115.23603720461394 373.0638799836298 115.95000000000005 372.4799999999999 C 116.29371484642552 372.1845553601092 116.65796310410082 371.9138754622037 117.04000000000005 371.6699999999999 C 117.39634301729102 371.43113034960265 117.77081754498423 371.2204884277752 118.16000000000005 371.0399999999999 C 118.54402100263306 370.85576939244913 118.94190946315786 370.701963769053 119.35000000000004 370.5799999999999 C 119.7830235280595 370.43301042529663 120.22366429475359 370.3094974831172 120.67000000000004 370.2099999999999 L 122.67000000000004 372.5899999999999 C 122.1470184093985 372.6147832332492 121.62604420622745 372.671556063082 121.11000000000004 372.75999999999993 C 120.69203417404891 372.83328939629416 120.28068978534449 372.94030582262377 119.88000000000004 373.0799999999999 C 119.52766466316197 373.20129990465034 119.19175996211654 373.3658932081626 118.88000000000004 373.56999999999994 C 118.55061414612072 373.7651131132635 118.23937013012859 373.98934267317185 117.95000000000003 374.23999999999995 C 117.4765738253588 374.6207581247369 117.08534478237657 375.09363496799364 116.80000000000003 375.62999999999994 C 116.53865415009788 376.11839270415715 116.3851969988592 376.6571978129507 116.35000000000002 377.2099999999999 C 116.32582656370951 377.7653091089882 116.41426783653314 378.3197678578441 116.61000000000003 378.8399999999999 C 117.08842849413097 380.0000375465387 117.91242239730556 380.98464043084056 118.97000000000003 381.6599999999999 C 119.45533988224285 381.93384201386056 119.98798959054368 382.11365369882833 120.54000000000002 382.1899999999999 C 121.0859464297388 382.24769027468403 121.6379225285151 382.1897668569112 122.16000000000003 382.01999999999987 C 122.73580874644854 381.82730599135385 123.26892675848289 381.5250925959968 123.73000000000002 381.1299999999999 C 124.02083988622334 380.88197049830273 124.29791903034817 380.618244565943 124.56000000000002 380.33999999999986 C 124.80700581045916 380.0523491892415 125.02474719616306 379.7408115143113 125.21000000000002 379.40999999999985 C 125.41350774333854 379.0415870274365 125.593857311127 378.6608490509942 125.75000000000003 378.26999999999987 C 125.928071144152 377.7831519576765 126.07503377409357 377.285483051738 126.19000000000003 376.77999999999986 L 128.19000000000003 379.10999999999984 M 113.73000000000002 383.65999999999985 C 114.49703773929214 384.58034894072966 115.44276683559558 385.3355714564828 116.51000000000002 385.8799999999999 C 117.5364664485992 386.40083578541095 118.65331335512317 386.7199349015607 119.80000000000003 386.8199999999999 C 120.94320185709566 386.91018779767927 122.09316960887148 386.78467509320814 123.19000000000003 386.4499999999999 C 124.33173979537614 386.1062550503872 125.39041389771698 385.5309626925235 126.30000000000003 384.7599999999999 C 127.22155106618965 383.99414031225365 127.97698625936589 383.0481448901681 128.52000000000004 381.9799999999999 C 129.0582562858314 380.9563852744282 129.3975804233197 379.8400088620916 129.52000000000004 378.6899999999999 C 129.8443902571853 375.05881252988434 127.93386438568416 371.59375939647856 124.69000000000004 369.9299999999999 C 122.60572808242156 368.87352557145664 120.19226509608836 368.6691163735057 117.96000000000004 369.3599999999999 C 115.65604248468777 370.0754176425214 113.73576087705943 371.685860191508 112.63000000000004 373.8299999999999 C 111.57266301384416 375.90687297801327 111.36813721904426 378.31453628171033 112.06000000000004 380.5399999999999 C 112.40758911588385 381.6852083270502 112.9861548280636 382.747046575286 113.76000000000005 383.6599999999999" stroke-linecap="round" />
</g>
<g transform="matrix(1 0 0 1 492.58 580.29)"  >
<path style="stroke: none; stroke-width: 1; stroke-dasharray: none; stroke-linecap: butt; stroke-dashoffset: 0; stroke-linejoin: miter; stroke-miterlimit: 4; fill: rgb(115,107,77); fill-rule: nonzero; opacity: 0.040000010281801224;" vector-effect="non-scaling-stroke"  transform=" translate(-222.72, -292.61)" d="M 227.49 281.38 C 227.01000000000002 281.5 226.4 281.69 225.67000000000002 281.95 C 224.85277584050667 282.2403900377318 224.0516359734173 282.5741983156857 223.27 282.95 C 222.34190943724175 283.3865450261198 221.4403471333717 283.87739561378237 220.57000000000002 284.42 C 219.61603945899407 284.99284892082215 218.70977516045022 285.64161376922624 217.86 286.36 C 217.16000000000003 286.95 216.58 287.47 216.12 287.93 C 215.7287105124232 288.3137709484686 215.3613527395302 288.7212041147681 215.02 289.15000000000003 C 214.78562895879995 289.42715281539347 214.58737850143976 289.7329289445422 214.43 290.06000000000006 C 214.32690007677996 290.2654250488466 214.25285810722767 290.48418541343295 214.21 290.71000000000004 C 214.17792898894575 290.8650253638741 214.17792898894575 291.024974636126 214.21 291.18000000000006 C 214.26083443796327 291.28206321751514 214.32109648527148 291.3791520715117 214.39000000000001 291.4700000000001 C 214.6425638816639 291.74974785875753 215.01617529972327 291.8879840834395 215.39000000000001 291.8400000000001 C 215.9087127434353 291.78505149343243 216.41706590542717 291.6571215586265 216.9 291.4600000000001 Q 217.77 291.1200000000001 218.9 290.5600000000001 L 221.16 289.3800000000001 Q 222.35999999999999 288.7400000000001 223.65 288.0900000000001 C 224.52 287.6500000000001 225.38 287.2600000000001 226.24 286.9200000000001 C 227.0861080819019 286.58796305100543 227.95502019251543 286.31726350885276 228.84 286.11000000000007 C 229.64333437352036 285.9037192911833 230.47071903950282 285.80618207446173 231.3 285.82000000000005 C 232.07098655522688 285.83978441665806 232.83116932897582 286.00607439841565 233.54000000000002 286.31000000000006 C 234.27687286552646 286.63988906729617 234.92470393825332 287.1403300017836 235.43 287.77000000000004 C 236.09579733115268 288.51905605941965 236.57848366138728 289.4125392664497 236.84 290.38000000000005 C 237.05901546016187 291.23316500060525 237.08972614786325 292.1237749439457 236.93 292.99000000000007 C 236.76827245875901 293.87314890403286 236.4643232443999 294.7242067042383 236.03 295.51000000000005 C 235.55698063752544 296.3429792368328 235.01154142824 297.13269490181045 234.4 297.87000000000006 C 233.78367922483986 298.63503277823037 233.11543344903566 299.35673821609896 232.4 300.0300000000001 C 231.68 300.7000000000001 230.99 301.3200000000001 230.3 301.8900000000001 C 228.65137806493615 303.29652661018326 226.86962605159817 304.53906419843213 224.98000000000002 305.6000000000001 C 223.40764069696885 306.4981792469758 221.76170301018087 307.26093085792627 220.06000000000003 307.88000000000005 L 216.46000000000004 303.58000000000004 C 218.33213929564278 303.2002590792295 220.1449417968769 302.5713275992095 221.85000000000002 301.71000000000004 C 223.7851843639878 300.74232970112683 225.59799751516664 299.5472158459052 227.25000000000003 298.15000000000003 C 228.09989750484084 297.45494911679333 228.89553887042504 296.6960810916353 229.63000000000002 295.88000000000005 C 230.08979259765044 295.3624751917178 230.48594710055414 294.7917441282125 230.81000000000003 294.18000000000006 C 230.97530233967976 293.81001074995345 231.04080950898617 293.403176751103 231 293 C 230.9832760567321 292.7307735024187 230.8856878377259 292.4728617807594 230.72 292.26 C 230.47159397417258 291.970077121853 230.10092691305246 291.8143969561826 229.72 291.84 C 229.18677173969039 291.85665430874377 228.66124075688734 291.97193207271346 228.17 292.17999999999995 C 227.48466530769068 292.4289290706704 226.8165411176845 292.7229037142732 226.17 293.05999999999995 C 225.45999999999998 293.42999999999995 224.7 293.8299999999999 223.91 294.2699999999999 L 221.45 295.56999999999994 C 220.60999999999999 296.00999999999993 219.75 296.41999999999996 218.89999999999998 296.7799999999999 C 218.06964773818785 297.1127660169554 217.22171435843055 297.3998615707315 216.35999999999999 297.63999999999993 C 215.59053076825782 297.8538068212129 214.79821960473092 297.9746678461577 214 298 C 213.24424612332137 297.995782834451 212.49670968584715 297.84287765405855 211.8 297.55 C 211.06238214215097 297.2259918253224 210.41398125141913 296.728541406507 209.91000000000003 296.1 C 209.2966092527727 295.4061336030083 208.84869305258115 294.5821045629612 208.60000000000002 293.69 C 208.39755126535755 292.9026388023087 208.3634760641716 292.0814264537275 208.50000000000003 291.28 C 208.6428780016322 290.44893489161336 208.91625286981713 289.64568527892186 209.31000000000003 288.9 C 209.73618803811698 288.10563799063135 210.2349819579171 287.35242569563115 210.80000000000004 286.65 C 211.3752529347095 285.9461859924715 211.99307644514437 285.27826868389326 212.65000000000003 284.65 Q 213.65000000000003 283.65 214.65000000000003 282.88 C 215.35000000000002 282.29 216.09000000000003 281.73 216.88000000000002 281.18 C 217.67000000000002 280.63 218.50000000000003 280.12 219.32000000000002 279.65000000000003 C 220.14000000000001 279.18000000000006 220.95000000000002 278.74 221.75000000000003 278.34000000000003 C 222.55000000000004 277.94000000000005 223.33000000000004 277.6 224.05000000000004 277.34000000000003 L 227.55000000000004 281.50000000000006" stroke-linecap="round" />
</g>
</svg>